<svg xmlns="http://www.w3.org/2000/svg" width="430" height="430" fill="none" viewBox="0 0 430 430"><path stroke="#121331" stroke-linejoin="round" stroke-width="18" d="M205 155.787c-60.974-3.865-114.2-36.244-146.477-83.943-9.171 13.506-14.53 29.807-14.53 47.359 0 44.235 34.035 80.525 77.359 84.134a87 87 0 0 1-15.63 4.58c-21.655 4.207-42.992-.04-60.6-10.439 10.65 38.075 45.777 63.804 84.657 63.216-9.38 7.174-20.464 12.428-32.787 15.046-11.403 2.423-22.756 2.352-33.492.156 15.405 27.983 45.417 45.563 77.829 44.816-17.304 13.453-39.052 21.464-62.672 21.464-14.8 0-28.866-3.145-41.564-8.804C72.09 359.518 115.526 375 162.58 375c119.907 0 217.394-104.717 209.323-224.06 17.032-14.528 28.756-35.293 31.432-59.159-13.787 9.187-30.479 13.391-46.974 11.929C341.865 80.468 316.059 65 286.639 65c-45.341 0-82.098 36.739-82.098 82.059 0 2.948.156 5.86.459 8.728Z" clip-rule="evenodd"/></svg>